#!OML:ASF \\Waltz\H\Terrain\Patient Classification 1\Animal2\Wednesday\Animal2.ASF
:FULLY-SPECIFIED
:DEGREES
1299
root 17.3619 18.1606 -11.9681 -539.918 -16.1517 -173.719
lowerback 3.31332 2.91126 8.90627
upperback -5.83448 4.34299 2.14162
thorax -7.53684 1.52981 -3.08696
lowerneck 10.7169 5.81599 18.5621
upperneck -13.48 9.31235 -10.6686
head -4.38955 4.34449 -6.89577
rclavicle -6.4605e-015 -1.90833e-014
rhumerus 40.2239 39.2237 -24.4021
rradius 62.7696
rwrist -28.3424
rhand -12.5903 18.1359
rfingers 7.12502
rthumb 13.4881 -11.4074
lclavicle -6.4605e-015 -1.90833e-014
lhumerus 3.64393 16.1924 -2.38019
lradius 55.3966
lwrist 12.8334
lhand -51.3523 13.3722
lfingers 7.12502
lthumb -23.8865 41.9067
rfemur -6.17075 -10.1714 21.3338
rtibia 28.4372
rfoot -7.98214 -3.85306
rtoes 32.9004
lfemur -22.5474 16.435 -19.2507
ltibia 34.8641
lfoot -20.3861 13.4047
ltoes 6.96194
1300
root 17.3172 18.2066 -12.0275 -540.151 -17.2675 -173.5
lowerback 2.63967 2.94158 8.92019
upperback -5.47748 4.295 2.36233
thorax -6.77801 1.55985 -2.81378
lowerneck 10.6269 5.88203 19.0491
upperneck -13.5259 9.40479 -11.1093
head -4.32484 4.39416 -7.1109
rclavicle -1.40143e-014 -1.98785e-014
rhumerus 40.6046 38.9365 -23.7675
rradius 62.982
rwrist -28.5407
rhand -12.7086 18.0791
rfingers 7.12502
rthumb 13.374 -11.4716
lclavicle -1.40143e-014 -1.98785e-014
lhumerus 3.4705 16.2492 -2.92396
lradius 55.6057
lwrist 13.3296
lhand -51.7088 13.2375
lfingers 7.12502
lthumb -24.2283 41.7269
rfemur -5.68411 -10.4889 21.2855
rtibia 28.328
rfoot -7.0346 -4.06746
rtoes 34.7391
lfemur -22.3265 16.8818 -19.6444
ltibia 33.7415
lfoot -19.4595 14.3719
ltoes 8.10661
1301
root 17.2694 18.2482 -12.0853 -540.4 -18.3892 -173.219
lowerback 2.88051 2.94518 8.94349
upperback -5.82367 4.33626 2.60297
thorax -7.30618 1.53745 -2.59478
lowerneck 10.8399 5.7929 19.2265
upperneck -13.0586 9.39511 -11.0143
head -4.21938 4.40856 -7.09708
rclavicle 1.05256e-013 2.18663e-014
rhumerus 40.2351 39.5675 -23.7988
rradius 63.1817
rwrist -28.3756
rhand -12.8083 18.019
rfingers 7.12502
rthumb 13.278 -11.538
lclavicle 1.05256e-013 2.18663e-014
lhumerus 3.32531 15.0553 -3.60014
lradius 55.9159
lwrist 13.8859
lhand -51.9033 13.3041
lfingers 7.12502
lthumb -24.4148 41.7685
rfemur -5.24131 -10.9141 21.2891
rtibia 28.2452
rfoot -5.9818 -4.50197
rtoes 34.3827
lfemur -22.1456 17.3255 -20.0351
ltibia 32.7102
lfoot -18.3288 16.0234
ltoes 8.09461
1302
root 17.2239 18.2717 -12.1355 -540.659 -19.6381 -172.83
lowerback 2.76653 2.90572 9.0008
upperback -5.89297 4.27108 2.95085
thorax -7.34544 1.49728 -2.24866
lowerneck 10.8659 5.72009 19.2264
upperneck -12.8528 9.31468 -10.9985
head -4.17485 4.38131 -7.08327
rclavicle 7.07673e-014 6.08281e-014
rhumerus 40.321 39.7833 -23.5593
rradius 63.2128
rwrist -28.1837
rhand -12.6518 18.0741
rfingers 7.12502
rthumb 13.4288 -11.473
lclavicle 7.07673e-014 6.08281e-014
lhumerus 3.22306 14.4491 -4.00275
lradius 56.0394
lwrist 14.1942
lhand -51.884 13.5042
lfingers 7.12502
lthumb -24.3963 41.9711
rfemur -4.80839 -11.3452 21.441
rtibia 28.2104
rfoot -4.82417 -5.00008
rtoes 33.0716
lfemur -22.0214 17.5081 -20.2991
ltibia 31.7746
lfoot -17.556 17.4135
ltoes 9.65215
1303
root 17.1773 18.2988 -12.1827 -540.942 -20.9807 -172.404
lowerback 2.71235 2.86129 9.14596
upperback -5.97962 4.212 3.25036
thorax -7.42909 1.45166 -2.00498
lowerneck 10.7558 5.65099 19.1636
upperneck -12.5721 9.21588 -10.869
head -4.09751 4.33984 -7.01288
rclavicle -1.39149e-015 -8.74653e-015
rhumerus 40.2594 39.9409 -23.4035
rradius 63.2403
rwrist -28.2864
rhand -12.5663 18.1056
rfingers 7.12502
rthumb 13.5112 -11.4361
lclavicle -1.39149e-015 -8.74653e-015
lhumerus 3.2716 14.1055 -4.23351
lradius 56.1449
lwrist 14.2819
lhand -51.9329 13.4836
lfingers 7.12502
lthumb -24.4432 41.9442
rfemur -4.46873 -11.6227 21.6264
rtibia 28.2225
rfoot -3.56984 -5.5435
rtoes 31.4482
lfemur -21.9055 17.6937 -20.5271
ltibia 30.9249
lfoot -16.8775 18.3442
ltoes 14.1082
1304
root 17.1275 18.3319 -12.2297 -541.315 -22.2408 -172.103
lowerback 2.7531 2.80293 9.18568
upperback -6.01311 4.14312 3.5193
thorax -7.51477 1.41187 -1.73944
lowerneck 10.5384 5.65238 18.8572
upperneck -12.1789 9.19125 -10.4161
head -3.98697 4.32557 -6.79237
rclavicle 1.53064e-014 -2.46493e-014
rhumerus 40.252 40.1283 -23.2138
rradius 63.2936
rwrist -28.5579
rhand -13.0283 17.8528
rfingers 7.12502
rthumb 13.0659 -11.718
lclavicle 1.53064e-014 -2.46493e-014
lhumerus 3.32075 14.0138 -4.44179
lradius 56.159
lwrist 14.2029
lhand -52.0775 13.1316
lfingers 7.12502
lthumb -24.5818 41.5733
rfemur -4.0312 -11.8473 21.6246
rtibia 28.2602
rfoot -2.21231 -6.05624
rtoes 29.1483
lfemur -21.5958 17.9776 -20.8348
ltibia 30.1767
lfoot -16.8119 18.9407
ltoes 22.7702
1305
root 17.0748 18.3512 -12.2742 -541.814 -23.4338 -171.726
lowerback 2.70629 2.74102 9.33942
upperback -5.92183 4.06053 3.75417
thorax -7.40537 1.37273 -1.56583
lowerneck 10.3665 5.62595 18.9924
upperneck -11.8792 9.15856 -10.3534
head -3.87092 4.31146 -6.7714
rclavicle -1.82882e-014 1.59028e-015
rhumerus 40.2423 40.1421 -23.0347
rradius 63.3584
rwrist -28.6841
rhand -13.4626 17.7059
rfingers 7.12502
rthumb 12.6472 -11.8912
lclavicle -1.82882e-014 1.59028e-015
lhumerus 3.30128 13.9138 -4.86236
lradius 56.2741
lwrist 14.3576
lhand -52.1658 12.8242
lfingers 7.12502
lthumb -24.6664 41.2544
rfemur -3.481 -12.0702 21.6407
rtibia 28.3788
rfoot -1.19502 -6.29879
rtoes 27.6714
lfemur -21.0892 17.8415 -20.9696
ltibia 29.4953
lfoot -16.9015 19.3983
ltoes 28.0135
1306
root 17.0192 18.3683 -12.3171 -542.375 -24.6028 -171.06
lowerback 2.7768 2.71816 9.86022
upperback -6.06516 4.06739 3.94579
thorax -7.58999 1.32643 -1.64956
lowerneck 10.7841 5.43504 19.5066
upperneck -11.8439 9.05469 -10.5105
head -3.91537 4.2612 -6.9181
rclavicle 2.14687e-014 -6.99722e-014
rhumerus 39.7157 40.3333 -23.3253
rradius 63.338
rwrist -28.3113
rhand -13.1983 18.2851
rfingers 7.12502
rthumb 12.902 -11.2961
lclavicle 2.14687e-014 -6.99722e-014
lhumerus 3.50345 13.6681 -5.22743
lradius 56.3728
lwrist 14.2277
lhand -51.7968 12.9092
lfingers 7.12502
lthumb -24.3127 41.3873
rfemur -3.07717 -12.1057 21.9025
rtibia 28.5967
rfoot -0.918502 -6.55954
rtoes 30.5094
lfemur -20.6352 17.3972 -20.8094
ltibia 28.9051
lfoot -16.4265 19.4518
ltoes 28.8658
1307
root 16.963 18.3798 -12.3613 -542.697 -25.7745 -170.564
lowerback 3.02651 2.64472 10.2761
upperback -6.57071 4.04026 4.03273
thorax -8.28191 1.22478 -1.79072
lowerneck 11.5786 5.23392 19.8342
upperneck -11.7432 9.0304 -10.356
head -4.0176 4.24857 -6.95196
rclavicle 1.48095e-014 -4.29375e-014
rhumerus 39.0517 41.0999 -23.9846
rradius 63.3388
rwrist -27.915
rhand -12.9257 18.796
rfingers 7.12502
rthumb 13.1648 -10.7684
lclavicle 1.48095e-014 -4.29375e-014
lhumerus 3.78105 13.2829 -5.62249
lradius 56.1532
lwrist 13.6201
lhand -51.1419 13.3597
lfingers 7.12502
lthumb -23.6848 41.9205
rfemur -2.89795 -12.2972 22.0092
rtibia 28.9053
rfoot -0.54963 -6.61193
rtoes 29.4715
lfemur -20.3999 16.8121 -20.8603
ltibia 28.4528
lfoot -16.4952 18.9027
ltoes 32.4679
1308
root 16.9054 18.3802 -12.4048 -542.893 -26.9842 -170.404
lowerback 2.96359 2.50366 10.1956
upperback -6.75656 3.84146 4.23071
thorax -8.48926 1.11513 -1.51495
lowerneck 11.6296 5.26896 19.7399
upperneck -11.3174 9.10877 -10.152
head -3.90062 4.30269 -6.85715
rclavicle 8.26944e-014 5.1684e-014
rhumerus 39.1658 41.6333 -23.9012
rradius 63.6353
rwrist -28.1181
rhand -13.2394 18.1966
rfingers 7.12502
rthumb 12.8624 -11.3871
lclavicle 8.26944e-014 5.1684e-014
lhumerus 3.68336 13.1091 -6.03115
lradius 55.9379
lwrist 13.3387
lhand -50.9769 13.6182
lfingers 7.12502
lthumb -23.5264 42.1994
rfemur -2.72558 -12.5253 21.7623
rtibia 29.3572
rfoot 0.22854 -6.21707
rtoes 25.2076
lfemur -20.1388 16.2473 -21.2603
ltibia 28.0932
lfoot -16.6838 18.6702
ltoes 34.8284
